<svg id="tech-c" viewBox="0 0 32 32" fill="none" xmlns="http://www.w3.org/2000/svg">
    <defs>
        <clipPath id="A">
            <path fill="#fff" transform="translate(3.143 3.263)" d="M0 0h16.286v18H0z"/>
        </clipPath>
    </defs>
    <g clip-path="url(#A)" fill-rule="evenodd" transform="matrix(1.7192679643630984, 0, 0, 1.7777779102325442, -3.403659105300889, -5.800889015197754)">
        <path d="M10.816 3.386c.291-.163.649-.163.94 0l7.203 4.043a.91.91 0 0 1 .47.791v8.086a.91.91 0 0 1-.47.792l-7.203 4.043c-.291.163-.649.163-.94 0l-7.203-4.043a.91.91 0 0 1-.47-.791V8.221a.91.91 0 0 1 .47-.792l7.203-4.043z" fill="#004482" style="stroke-width: 0px;"/>
        <path d="M3.273 16.722c-.114-.153-.13-.297-.13-.492V8.19c0-.325.179-.625.469-.787l7.178-4.02c.29-.162.683-.159.973.003l7.163 3.999c.116.065.204.144.283.247l-15.935 9.09z" fill="#659ad2" style="stroke-width: 0px;"/>
        <path d="M11.286 6.263c3.312 0 6 2.688 6 6s-2.688 6-6 6-6-2.688-6-6 2.688-6 6-6zm0 3a3 3 0 0 1 3 3c0 1.656-1.344 3-3 3s-3-1.344-3-3a3 3 0 0 1 3-3z" fill="#fff" style="stroke-width: 0px;"/>
        <path d="M19.208 7.637c.221.207.217.519.217.765l.004 7.879a.93.93 0 0 1-.139.483l-8.179-4.5 8.096-4.626z" fill="#00599c" style="stroke-width: 0px;"/>
    </g>
</svg>
