<svg id="tech-java" viewBox="0 0 32 32" xmlns="http://www.w3.org/2000/svg">
    <rect width="32" height="32" stroke="none" fill="#000000" opacity="0" transform="matrix(1, 0, 0, 1, 4.440892098500626e-16, 0)"/>
    <g transform="matrix(0.800000011920929, 0, 0, 0.800000011920929, 15.999999046325684, 16.000442504882812)">
        <g style="">
            <g transform="matrix(1 0 0 1 -1.32 -9.55)">
                <path style="stroke: none; stroke-width: 1; stroke-dasharray: none; stroke-linecap: butt; stroke-dashoffset: 0; stroke-linejoin: miter; stroke-miterlimit: 4; fill: rgb(244,67,54); fill-rule: nonzero; opacity: 1;" transform=" translate(-22.68, -14.45)" d="M 23.65 24.898 C 22.651999999999997 23.289 21.927999999999997 21.955 20.924999999999997 19.442999999999998 C 19.229 15.2 31.24 11.366 26.37 3.999 C 28.481 9.088000000000001 18.793 12.234 17.893 16.472 C 17.07 20.37 23.645 24.898 23.65 24.898 z" stroke-linecap="round"/>
            </g>
            <g transform="matrix(1 0 0 1 4.33 -5.62)">
                <path style="stroke: none; stroke-width: 1; stroke-dasharray: none; stroke-linecap: butt; stroke-dashoffset: 0; stroke-linejoin: miter; stroke-miterlimit: 4; fill: rgb(244,67,54); fill-rule: nonzero; opacity: 1;" transform=" translate(-28.33, -18.38)" d="M 23.878 17.27 C 23.686 19.786 26.107 21.127 26.177 22.965 C 26.233 24.461 24.73 25.708 24.73 25.708 C 24.73 25.708 27.458000000000002 25.171999999999997 28.309 22.889999999999997 C 29.254 20.355999999999998 26.475 18.620999999999995 26.761000000000003 16.592 C 27.028000000000002 14.653999999999998 32.792 11.049 32.792 11.049 C 32.792 11.049 24.311 11.611 23.878 17.27 z" stroke-linecap="round"/>
            </g>
            <g transform="matrix(1 0 0 1 0.6 4.41)">
                <path style="stroke: none; stroke-width: 1; stroke-dasharray: none; stroke-linecap: butt; stroke-dashoffset: 0; stroke-linejoin: miter; stroke-miterlimit: 4; fill: rgb(21,101,192); fill-rule: nonzero; opacity: 1;" transform=" translate(-24.6, -28.41)" d="M 32.084 25.055 C 33.838 24.661 35.317 25.778 35.317 27.064999999999998 C 35.317 29.965999999999998 31.296 32.708 31.296 32.708 C 31.296 32.708 37.521 31.965999999999998 37.521 27.203 C 37.521 24.053 34.464 23.266 32.084 25.055 z M 29.129 27.395 C 29.129 27.395 31.07 26.012 31.587000000000003 25.493 C 26.824000000000005 26.503999999999998 15.949000000000003 26.639999999999997 15.949000000000003 25.761999999999997 C 15.949000000000003 24.952999999999996 19.456000000000003 24.123999999999995 19.456000000000003 24.123999999999995 C 19.456000000000003 24.123999999999995 11.683000000000003 24.011999999999997 11.683000000000003 26.304999999999996 C 11.683 28.695 21.858 28.866 29.129 27.395 z" stroke-linecap="round"/>
            </g>
            <g transform="matrix(1 0 0 1 -1.58 6.56)">
                <path style="stroke: none; stroke-width: 1; stroke-dasharray: none; stroke-linecap: butt; stroke-dashoffset: 0; stroke-linejoin: miter; stroke-miterlimit: 4; fill: rgb(21,101,192); fill-rule: nonzero; opacity: 1;" transform=" translate(-22.42, -30.56)" d="M 27.935 29.571 C 23.426 31.07 15.120999999999999 30.591 17.581 28.578000000000003 C 16.383 28.578000000000003 14.607 29.541000000000004 14.607 30.467000000000002 C 14.607 32.324000000000005 23.589 33.758 30.237000000000002 31.039 L 27.935 29.571 z" stroke-linecap="round"/>
            </g>
            <g transform="matrix(1 0 0 1 -1.2 10.61)">
                <path style="stroke: none; stroke-width: 1; stroke-dasharray: none; stroke-linecap: butt; stroke-dashoffset: 0; stroke-linejoin: miter; stroke-miterlimit: 4; fill: rgb(21,101,192); fill-rule: nonzero; opacity: 1;" transform=" translate(-22.8, -34.61)" d="M 18.686 32.739 C 17.05 32.739 15.991 33.793 15.991 34.561 C 15.991 36.952 25.750999999999998 37.193 29.618000000000002 34.766 L 27.160000000000004 33.134 C 24.271 34.404 17.014 34.579 18.686 32.739 z" stroke-linecap="round"/>
            </g>
            <g transform="matrix(1 0 0 1 -1.36 13.89)">
                <path style="stroke: none; stroke-width: 1; stroke-dasharray: none; stroke-linecap: butt; stroke-dashoffset: 0; stroke-linejoin: miter; stroke-miterlimit: 4; fill: rgb(21,101,192); fill-rule: nonzero; opacity: 1;" transform=" translate(-22.64, -37.89)" d="M 36.281 36.632 C 36.281 35.696 35.226 35.254999999999995 34.848 35.044 C 37.076 40.416999999999994 12.530999999999999 40 12.530999999999999 36.827999999999996 C 12.530999999999999 36.107 14.338 35.400999999999996 16.008 35.735 L 14.588 34.896 C 11.26 34.374 9 35.837 9 37.017 C 9 42.52 36.281 42.255 36.281 36.632 z" stroke-linecap="round"/>
            </g>
            <g transform="matrix(1 0 0 1 2.38 17.3)">
                <path style="stroke: none; stroke-width: 1; stroke-dasharray: none; stroke-linecap: butt; stroke-dashoffset: 0; stroke-linejoin: miter; stroke-miterlimit: 4; fill: rgb(21,101,192); fill-rule: nonzero; opacity: 1;" transform=" translate(-26.38, -41.3)" d="M 39 38.604 C 34.854 42.699 24.341 44.191 13.768999999999998 41.661 C 24.341 46.164 38.95 43.628 39 38.604 z" stroke-linecap="round"/>
            </g>
        </g>
    </g>
</svg>
