<?xml version="1.0" encoding="utf-8"?>
<svg id="tech-azure" viewBox="0 0 32 32" xmlns="http://www.w3.org/2000/svg">
    <rect width="32" height="32" stroke="none" fill="#000000" opacity="0"/>
    <g transform="matrix(0.8375651240348816, 0, 0, 0.8375651240348816, 16, 16.0000057220459)">
        <g style="">
            <g transform="matrix(1 0 0 1 -7.08 0)">
                <linearGradient id="SVGID_k8yl7~hDat~FaoWq8WjN6a_1" gradientUnits="userSpaceOnUse" gradientTransform="matrix(1.56 0 0 1.56 1981.75 -1362.06)" x1="-1254.397" y1="877.268" x2="-1261.911" y2="899.466">
                    <stop offset="0" style="stop-color:rgb(17,74,139);stop-opacity: 1"/>
                    <stop offset="1" style="stop-color:rgb(6,105,188);stop-opacity: 1"/>
                </linearGradient>
                <path style="stroke: none; stroke-dasharray: none; stroke-linecap: butt; stroke-dashoffset: 0; stroke-linejoin: miter; stroke-miterlimit: 4; fill: url('#SVGID_k8yl7~hDat~FaoWq8WjN6a_1'); fill-rule: nonzero; opacity: 1; stroke-width: 0px;" transform=" translate(-16.92, -24)" d="M 17.634 6 L 28.939 6 L 17.203 40.773 C 16.956 41.506 16.269 41.999 15.495 41.999 L 6.697 41.999 C 5.703 41.999 4.897 41.193000000000005 4.897 40.199000000000005 C 4.897 40.00300000000001 4.929 39.809000000000005 4.9910000000000005 39.623000000000005 L 15.926 7.227 C 16.173 6.494 16.86 6 17.634 6 L 17.634 6 z" stroke-linecap="round"/>
            </g>
            <g transform="matrix(1 0 0 1 2.89 11.66)">
                <path style="stroke: none; stroke-dasharray: none; stroke-linecap: butt; stroke-dashoffset: 0; stroke-linejoin: miter; stroke-miterlimit: 4; fill: rgb(0, 120, 212); fill-rule: nonzero; opacity: 1; stroke-width: 0px;" transform=" translate(-26.89, -35.66)" d="M 34.062 29.324 L 16.135 29.324 C 15.677000000000001 29.323 15.305000000000001 29.695 15.304000000000002 30.153000000000002 C 15.304000000000002 30.384000000000004 15.399000000000003 30.604000000000003 15.568000000000001 30.761000000000003 L 27.088 41.513000000000005 C 27.423 41.826 27.865 42 28.324 42 L 38.475 42 L 34.062 29.324 z" stroke-linecap="round"/>
            </g>
            <g transform="matrix(1 0 0 1 -2.33 0)">
                <linearGradient id="SVGID_k8yl7~hDat~FaoWq8WjN6b_2" gradientUnits="userSpaceOnUse" gradientTransform="matrix(1.56 0 0 1.56 1981.75 -1362.06)" x1="-1252.05" y1="887.612" x2="-1253.788" y2="888.2">
                    <stop offset="0" style="stop-color:rgb(0,0,0);stop-opacity: 0.3"/>
                    <stop offset="0.071" style="stop-color:rgb(0,0,0);stop-opacity: 0.2"/>
                    <stop offset="0.321" style="stop-color:rgb(0,0,0);stop-opacity: 0.1"/>
                    <stop offset="0.623" style="stop-color:rgb(0,0,0);stop-opacity: 0.05"/>
                    <stop offset="1" style="stop-color:rgb(0,0,0);stop-opacity: 0"/>
                </linearGradient>
                <path style="stroke: none; stroke-dasharray: none; stroke-linecap: butt; stroke-dashoffset: 0; stroke-linejoin: miter; stroke-miterlimit: 4; fill: url('#SVGID_k8yl7~hDat~FaoWq8WjN6b_2'); fill-rule: nonzero; opacity: 1; stroke-width: 0px;" transform=" translate(-21.67, -24)" d="M 17.634 6 C 16.851 5.997 16.158 6.504 15.922 7.25 L 5.005 39.595 C 4.67 40.528999999999996 5.156 41.559 6.09 41.894 C 6.286 41.964 6.493 42 6.702 42 L 15.728 42 C 16.412 41.878 16.978 41.397 17.209 40.741 L 19.386 34.325 L 27.162 41.578 C 27.488 41.848000000000006 27.897 41.997 28.32 42 L 38.434 42 L 33.998 29.323999999999998 L 21.067 29.326999999999998 L 28.98 6 L 17.634 6 z" stroke-linecap="round"/>
            </g>
            <g transform="matrix(1 0 0 1 6.44 0)">
                <linearGradient id="SVGID_k8yl7~hDat~FaoWq8WjN6c_3" gradientUnits="userSpaceOnUse" gradientTransform="matrix(1.56 0 0 1.56 1981.75 -1362.06)" x1="-1252.952" y1="876.6" x2="-1244.704" y2="898.575">
                    <stop offset="0" style="stop-color:rgb(60,203,244);stop-opacity: 1"/>
                    <stop offset="1" style="stop-color:rgb(40,146,223);stop-opacity: 1"/>
                </linearGradient>
                <path style="stroke: none; stroke-dasharray: none; stroke-linecap: butt; stroke-dashoffset: 0; stroke-linejoin: miter; stroke-miterlimit: 4; fill: url('#SVGID_k8yl7~hDat~FaoWq8WjN6c_3'); fill-rule: nonzero; opacity: 1; stroke-width: 0px;" transform=" translate(-30.44, -24)" d="M 32.074 7.225 C 31.827 6.493 31.141 6 30.368 6 L 17.768 6 C 18.54 6 19.227 6.493 19.473 7.224 L 30.408 39.623000000000005 C 30.726000000000003 40.565000000000005 30.220000000000002 41.586000000000006 29.278000000000002 41.904 C 29.093 41.968 28.899 42 28.703 42 L 41.303 42 C 42.297 42 43.102999999999994 41.194 43.102999999999994 40.199 C 43.102999999999994 40.003 43.071 39.809 43.007999999999996 39.623999999999995 L 32.074 7.225 z" stroke-linecap="round"/>
            </g>
        </g>
    </g>
</svg>
