<svg id="tech-typescript" viewBox="0 0 32 32" xmlns="http://www.w3.org/2000/svg">
    <rect width="32" height="32" stroke="none" fill="#000000" opacity="0" transform="matrix(1, 0, 0, 1, 4.440892098500626e-16, 4.440892098500626e-16)"/>
    <g transform="matrix(0.8888890147209167, 0, 0, 0.8888890147209167, 16, 16)">
        <g style="">
            <g transform="matrix(1 0 0 1 0 0)">
                <rect style="stroke: none; stroke-dasharray: none; stroke-linecap: butt; stroke-dashoffset: 0; stroke-linejoin: miter; stroke-miterlimit: 4; fill: rgb(25, 118, 210); fill-rule: nonzero; opacity: 1; stroke-width: 0px;" x="-18" y="-18" rx="0" ry="0" width="36" height="36"/>
            </g>
            <g transform="matrix(1 0 0 1 -3.14 7)">
                <polygon style="stroke: none; stroke-dasharray: none; stroke-linecap: butt; stroke-dashoffset: 0; stroke-linejoin: miter; stroke-miterlimit: 4; fill: rgb(255, 255, 255); fill-rule: nonzero; opacity: 1; stroke-width: 0px;" points="6.63,-9 -6.63,-9 -6.63,-5.74 -1.87,-5.74 -1.87,9 1.89,9 1.89,-5.74 6.63,-5.74 "/>
            </g>
            <g transform="matrix(1 0 0 1 10.34 6.99)">
                <path style="stroke: none; stroke-dasharray: none; stroke-linecap: butt; stroke-dashoffset: 0; stroke-linejoin: miter; stroke-miterlimit: 4; fill: rgb(255, 255, 255); fill-rule: nonzero; opacity: 1; stroke-width: 0px;" transform=" translate(-34.34, -30.99)" d="M 39.194 26.084 C 39.194 26.084 37.407000000000004 24.892 35.387 24.892 C 33.367 24.892 32.64 25.852 32.64 26.878 C 32.64 29.526 40.021 29.261 40.021 34.59 C 40.021 42.79900000000001 28.767000000000003 39.158 28.767000000000003 39.158 L 28.767000000000003 35.22 C 28.767000000000003 35.22 30.919000000000004 36.842 33.5 36.842 C 36.080999999999996 36.842 35.983 35.153999999999996 35.983 34.922 C 35.983 32.473 28.667999999999996 32.473 28.667999999999996 27.043999999999997 C 28.667999999999996 19.662999999999997 39.32599999999999 22.574999999999996 39.32599999999999 22.574999999999996 L 39.194 26.084 z" stroke-linecap="round"/>
            </g>
        </g>
    </g>
</svg>
