<svg id="tech-php" viewBox="0 0 32 32" fill="none" xmlns="http://www.w3.org/2000/svg">
    <defs>
        <radialGradient id="paint0_radial_257_12" cx="0" cy="0" r="1" gradientUnits="userSpaceOnUse" gradientTransform="translate(9.6065 10.5423) scale(21.0103)">
            <stop stop-color="#AEB2D5"/>
            <stop offset="0.3" stop-color="#AEB2D5"/>
            <stop offset="0.75" stop-color="#484C89"/>
            <stop offset="1" stop-color="#484C89"/>
        </radialGradient>
    </defs>
    <path d="M0 16C0 20.6483 7.1635 24.4168 16 24.4168C24.8365 24.4168 32 20.6483 32 16C32 11.3518 24.8363 7.58325 16 7.58325C7.16375 7.58325 0 11.3518 0 16Z" fill="url(#paint0_radial_257_12)" style="stroke-width: 0px;" transform="matrix(1, 0, 0, 1, 8.881784197001252e-16, 8.881784197001252e-16)"/>
    <path d="M16 23.7918C24.4913 23.7918 31.375 20.303 31.375 16C31.375 11.6965 24.4913 8.20825 16 8.20825C7.50875 8.20825 0.625 11.6965 0.625 16C0.625 20.303 7.50875 23.7918 16 23.7918Z" fill="#777BB3" style="stroke-width: 0px;" transform="matrix(1, 0, 0, 1, 8.881784197001252e-16, 8.881784197001252e-16)"/>
    <path d="M8.69301 16.966C9.39126 16.966 9.91226 16.8373 10.242 16.5835C10.5685 16.332 10.7938 15.8968 10.912 15.2898C11.022 14.7223 10.98 14.3263 10.787 14.1123C10.59 13.8938 10.1638 13.783 9.52026 13.783H8.40426L7.78601 16.966H8.69301ZM5.04326 20.8868C5.01766 20.8867 4.99238 20.881 4.96923 20.8701C4.94609 20.8591 4.92567 20.8432 4.90942 20.8234C4.89317 20.8036 4.8815 20.7804 4.87525 20.7556C4.86899 20.7308 4.86832 20.7049 4.87326 20.6798L6.51251 12.2453C6.52026 12.2058 6.54143 12.1703 6.57243 12.1447C6.60343 12.1192 6.64233 12.1051 6.68251 12.105H10.216C11.3265 12.105 12.153 12.4065 12.6728 13.0013C13.1948 13.5988 13.3563 14.4348 13.152 15.485C13.0688 15.9128 12.9258 16.31 12.727 16.666C12.5202 17.0322 12.2562 17.3631 11.945 17.646C11.5623 18.004 11.129 18.264 10.6583 18.4168C10.1953 18.5678 9.60026 18.6443 8.89076 18.6443H7.45976L7.05126 20.7463C7.04355 20.7858 7.02232 20.8215 6.99122 20.8471C6.96011 20.8727 6.92106 20.8868 6.88076 20.8868H5.04326Z" fill="black" style="stroke-width: 0px;" transform="matrix(1, 0, 0, 1, 8.881784197001252e-16, 8.881784197001252e-16)"/>
    <path d="M8.5475 13.9565H9.52026C10.297 13.9565 10.5668 14.127 10.6585 14.2287C10.8103 14.3972 10.8393 14.753 10.7413 15.2567C10.6315 15.821 10.428 16.2212 10.1363 16.4457C9.83775 16.6757 9.35176 16.7922 8.69301 16.7922H7.99651L8.5475 13.9565ZM10.216 11.9315H6.68276C6.60218 11.9315 6.52411 11.9595 6.46191 12.0107C6.39971 12.0619 6.35723 12.1332 6.34176 12.2122L4.70251 20.647C4.69282 20.6972 4.69436 20.749 4.707 20.7986C4.71963 20.8482 4.74307 20.8943 4.77562 20.9338C4.80817 20.9733 4.84904 21.0051 4.8953 21.027C4.94157 21.0488 4.99209 21.0602 5.04326 21.0602H6.88076C6.96132 21.0602 7.03936 21.0321 7.10151 20.9808C7.16367 20.9296 7.20609 20.8583 7.22151 20.7792L7.60276 18.8177H8.89051C9.61851 18.8177 10.2315 18.7382 10.7123 18.5817C11.2065 18.4212 11.6613 18.149 12.0638 17.7725C12.3879 17.4774 12.6629 17.1325 12.8785 16.7507C13.0863 16.379 13.2358 15.964 13.3223 15.518C13.5373 14.4122 13.3625 13.527 12.8033 12.887C12.2493 12.2527 11.3788 11.9312 10.216 11.9312V11.9315ZM7.57526 17.1392H8.69301C9.43384 17.1394 9.9855 16.9998 10.348 16.7205C10.7105 16.4415 10.9553 15.9756 11.0825 15.3227C11.2038 14.6957 11.1484 14.2534 10.9163 13.9957C10.6838 13.7381 10.2184 13.6092 9.52026 13.6092H8.26125L7.57526 17.1392ZM10.2163 12.278C11.2793 12.278 12.0545 12.557 12.542 13.115C13.0295 13.673 13.1762 14.4518 12.982 15.4515C12.9017 15.8635 12.7663 16.24 12.5758 16.581C12.3849 16.9223 12.1357 17.2346 11.828 17.5177C11.4613 17.8611 11.0537 18.1057 10.605 18.2515C10.1565 18.3975 9.58509 18.4704 8.89076 18.4702H7.31676L6.88101 20.7127H5.04351L6.68301 12.278H10.2163Z" fill="white" style="stroke-width: 0px;" transform="matrix(1, 0, 0, 1, 8.881784197001252e-16, 8.881784197001252e-16)"/>
    <path d="M17.3648 18.6442C17.3391 18.6443 17.3138 18.6386 17.2907 18.6277C17.2675 18.6168 17.247 18.6009 17.2307 18.5811C17.2144 18.5614 17.2027 18.5382 17.1964 18.5134C17.1901 18.4886 17.1894 18.4626 17.1943 18.4375L17.9193 14.7055C17.9885 14.3505 17.9715 14.096 17.8718 13.988C17.8105 13.9222 17.627 13.812 17.0843 13.812H15.7703L14.8588 18.504C14.8509 18.5435 14.8296 18.5791 14.7985 18.6046C14.7673 18.6301 14.7283 18.6441 14.688 18.644H12.8655C12.8399 18.644 12.8146 18.6384 12.7915 18.6275C12.7683 18.6166 12.7478 18.6007 12.7315 18.581C12.7152 18.5612 12.7034 18.5381 12.6971 18.5133C12.6907 18.4885 12.6899 18.4626 12.6948 18.4375L14.3343 10.0027C14.342 9.96322 14.3633 9.92763 14.3944 9.90205C14.4255 9.87647 14.4645 9.86249 14.5048 9.86249H16.3273C16.3529 9.86247 16.3782 9.86811 16.4013 9.87901C16.4245 9.8899 16.445 9.90579 16.4613 9.92552C16.4776 9.94525 16.4894 9.96834 16.4957 9.99314C16.5021 10.0179 16.5028 10.0438 16.498 10.069L16.1025 12.105H17.5158C18.5925 12.105 19.3225 12.2945 19.7478 12.6852C20.181 13.0835 20.3165 13.7202 20.1498 14.5785L19.387 18.504C19.3792 18.5435 19.3579 18.579 19.3268 18.6045C19.2957 18.6301 19.2567 18.644 19.2165 18.644L17.3648 18.6442Z" fill="black" transform="matrix(1, 0, 0, 1, 8.881784197001252e-16, 8.881784197001252e-16)" style="stroke-width: 0px;"/>
    <path d="M16.3275 9.68875H14.5048C14.4242 9.68877 14.3461 9.71681 14.2839 9.76807C14.2216 9.81934 14.1792 9.89063 14.1638 9.96975L12.5245 18.4043C12.5148 18.4545 12.5163 18.5063 12.5289 18.5559C12.5415 18.6055 12.565 18.6517 12.5975 18.6912C12.6301 18.7308 12.671 18.7626 12.7172 18.7844C12.7635 18.8063 12.8141 18.8177 12.8653 18.8178H14.688C14.7686 18.8177 14.8467 18.7897 14.9089 18.7384C14.9711 18.6872 15.0136 18.6159 15.029 18.5368L15.9133 13.9855H17.0838C17.6258 13.9855 17.7398 14.1013 17.744 14.1065C17.777 14.1415 17.8203 14.3053 17.7488 14.6725L17.0238 18.4043C17.014 18.4545 17.0155 18.5063 17.0282 18.556C17.0408 18.6056 17.0643 18.6518 17.0968 18.6913C17.1294 18.7309 17.1703 18.7627 17.2167 18.7845C17.263 18.8064 17.3135 18.8177 17.3648 18.8178H19.2168C19.2973 18.8177 19.3754 18.7896 19.4375 18.7383C19.4997 18.6871 19.5421 18.6158 19.5575 18.5368L20.3203 14.6118C20.499 13.6903 20.346 12.9993 19.8653 12.5575C19.4063 12.136 18.6378 11.9313 17.5158 11.9313H16.3133L16.6685 10.1025C16.6783 10.0522 16.6768 10.0004 16.6642 9.9507C16.6516 9.90104 16.6281 9.85478 16.5955 9.81524C16.563 9.7757 16.522 9.74385 16.4757 9.72199C16.4294 9.70012 16.3788 9.68877 16.3275 9.68875ZM16.3275 10.0363L15.8918 12.2783H17.5158C18.5376 12.2783 19.2423 12.4566 19.63 12.8133C20.018 13.1696 20.1345 13.7471 19.9795 14.5458L19.2165 18.4705H17.3648L18.09 14.7385C18.1725 14.314 18.1421 14.0245 17.9988 13.87C17.8554 13.7157 17.5506 13.6385 17.0843 13.6385H15.627L14.688 18.4703H12.865L14.5045 10.0355H16.3275V10.0363Z" fill="white" style="stroke-width: 0px;" transform="matrix(1, 0, 0, 1, 8.881784197001252e-16, 8.881784197001252e-16)"/>
    <path d="M23.034 16.966C23.7323 16.966 24.2535 16.8373 24.5835 16.5835C24.9095 16.332 25.135 15.8968 25.2533 15.2898C25.3633 14.7223 25.3215 14.3263 25.1283 14.1123C24.9313 13.8938 24.505 13.783 23.8615 13.783H22.7458L22.127 16.966H23.034ZM19.385 20.8868C19.3594 20.8868 19.334 20.8812 19.3108 20.8702C19.2876 20.8593 19.2671 20.8434 19.2508 20.8236C19.2345 20.8038 19.2228 20.7806 19.2165 20.7557C19.2102 20.7309 19.2096 20.7049 19.2145 20.6798L20.8538 12.2453C20.8615 12.2057 20.8828 12.1702 20.9139 12.1446C20.945 12.119 20.984 12.105 21.0243 12.105H24.5575C25.668 12.105 26.4945 12.4065 27.014 13.0013C27.5363 13.5988 27.6975 14.4348 27.4933 15.485C27.4151 15.8987 27.2717 16.2973 27.0685 16.666C26.8617 17.0322 26.5977 17.3631 26.2865 17.646C25.904 18.004 25.4703 18.264 24.9998 18.4168C24.5368 18.5678 23.9418 18.6443 23.232 18.6443H21.8013L21.393 20.7463C21.3853 20.7859 21.364 20.8215 21.3329 20.8472C21.3017 20.8728 21.2626 20.8868 21.2223 20.8868H19.385Z" fill="black" style="stroke-width: 0px;" transform="matrix(1, 0, 0, 1, 8.881784197001252e-16, 8.881784197001252e-16)"/>
    <path d="M22.8888 13.9565H23.8615C24.6383 13.9565 24.908 14.127 24.9995 14.2287C25.152 14.3972 25.1805 14.753 25.0828 15.2567C24.9728 15.821 24.7693 16.2212 24.4775 16.4457C24.1788 16.6757 23.6928 16.7922 23.0343 16.7922H22.3378L22.8888 13.9565ZM24.5573 11.9315H21.024C20.9435 11.9316 20.8655 11.9596 20.8033 12.0108C20.7412 12.062 20.6987 12.1332 20.6833 12.2122L19.0438 20.647C19.0341 20.6973 19.0356 20.749 19.0483 20.7986C19.0609 20.8482 19.0844 20.8944 19.1169 20.9339C19.1495 20.9734 19.1904 21.0052 19.2367 21.027C19.283 21.0489 19.3336 21.0602 19.3848 21.0602H21.2223C21.3028 21.0602 21.3809 21.0321 21.443 20.9808C21.5052 20.9296 21.5476 20.8583 21.563 20.7792L21.9443 18.8177H23.2318C23.9595 18.8177 24.5728 18.7382 25.0533 18.5817C25.5478 18.4212 26.0025 18.149 26.4053 17.7722C26.7293 17.4772 27.0042 17.1323 27.2198 16.7507C27.4278 16.379 27.5768 15.964 27.6635 15.518C27.8785 14.4122 27.704 13.527 27.1445 12.887C26.5905 12.2527 25.7203 11.9312 24.557 11.9312L24.5573 11.9315ZM21.9165 17.1392H23.034C23.7748 17.1394 24.3267 16.9998 24.6895 16.7205C25.052 16.4415 25.2967 15.9756 25.4235 15.3227C25.5453 14.6957 25.4899 14.2534 25.2573 13.9957C25.0246 13.7381 24.5593 13.6092 23.8615 13.6092H22.6028L21.9165 17.1392ZM24.5573 12.278C25.6203 12.278 26.3955 12.557 26.883 13.115C27.3705 13.673 27.5171 14.4518 27.3228 15.4515C27.2428 15.8635 27.1074 16.24 26.9168 16.581C26.7261 16.9223 26.4768 17.2346 26.1688 17.5177C25.8021 17.8611 25.3944 18.1057 24.9458 18.2515C24.4974 18.3975 23.9261 18.4704 23.2318 18.4702H21.658L21.2218 20.7127H19.3843L21.0238 12.278H24.5573Z" fill="white" style="stroke-width: 0px;" transform="matrix(1, 0, 0, 1, 8.881784197001252e-16, 8.881784197001252e-16)"/>
</svg>
