<svg id="tech-cpp" viewBox="0 0 32 32" fill="none" xmlns="http://www.w3.org/2000/svg">
    <path d="M 30.856 9.409 C 30.867 8.911 30.741 8.42 30.493 7.988 C 30.232 7.564 29.863 7.217 29.423 6.983 C 25.466 4.798 21.508 2.615 17.547 0.432 C 17.07 0.144 16.522 -0.005 15.964 0 C 15.407 0.005 14.862 0.164 14.39 0.459 C 12.815 1.35 4.933 5.676 2.584 6.98 C 2.137 7.205 1.764 7.553 1.509 7.983 C 1.254 8.414 1.128 8.908 1.145 9.408 L 1.145 22.594 C 1.134 23.081 1.252 23.562 1.488 23.988 C 1.75 24.425 2.127 24.781 2.578 25.017 C 4.928 26.321 12.81 30.647 14.385 31.537 C 14.857 31.833 15.402 31.993 15.959 31.998 C 16.517 32.004 17.065 31.854 17.542 31.567 C 21.496 29.38 25.452 27.196 29.411 25.016 C 29.862 24.779 30.239 24.423 30.502 23.987 C 30.738 23.561 30.857 23.08 30.845 22.593 L 30.845 9.409" fill="#659AD2" style="stroke-width: 0px;" transform="matrix(1, 0, 0, 1, 4.440892098500626e-16, 4.440892098500626e-16)"/>
    <path d="M 30.341 24.195 C 30.401 24.129 30.457 24.06 30.509 23.987 C 30.745 23.561 30.863 23.08 30.852 22.593 L 30.852 9.409 C 30.862 8.911 30.736 8.42 30.488 7.988 C 30.447 7.92 30.387 7.868 30.34 7.805 L 16.001 16.001 L 30.341 24.195 Z" fill="#00599C" style="stroke-width: 0px;" transform="matrix(1, 0, 0, 1, 4.440892098500626e-16, 4.440892098500626e-16)"/>
    <path d="M 30.341 24.195 L 16.001 16.001 L 1.661 24.195 C 1.902 24.536 2.218 24.818 2.585 25.018 C 4.935 26.322 12.817 30.648 14.392 31.539 C 14.864 31.835 15.409 31.994 15.966 31.999 C 16.524 32.005 17.072 31.855 17.549 31.568 C 21.503 29.381 25.459 27.197 29.418 25.017 C 29.784 24.817 30.1 24.536 30.341 24.195 Z" fill="#004482" style="stroke-width: 0px;" transform="matrix(1, 0, 0, 1, 4.440892098500626e-16, 4.440892098500626e-16)"/>
    <path d="M 20.115 18.309 C 19.606 19.214 18.812 19.926 17.856 20.333 C 16.901 20.74 15.838 20.82 14.832 20.56 C 13.826 20.301 12.935 19.716 12.296 18.897 C 11.658 18.078 11.308 17.071 11.301 16.032 C 11.294 14.993 11.631 13.982 12.258 13.154 C 12.886 12.327 13.77 11.73 14.772 11.457 C 15.774 11.184 16.838 11.25 17.799 11.645 C 18.76 12.039 19.563 12.74 20.084 13.639 L 24.215 11.27 C 23.166 9.47 21.555 8.065 19.63 7.272 C 17.704 6.478 15.571 6.339 13.559 6.877 C 11.547 7.415 9.768 8.599 8.495 10.248 C 7.222 11.897 6.527 13.918 6.516 16.001 C 6.513 17.652 6.947 19.275 7.773 20.705 C 8.609 22.15 9.811 23.349 11.257 24.182 C 12.703 25.015 14.344 25.453 16.013 25.451 C 17.682 25.449 19.321 25.008 20.765 24.171 C 22.21 23.335 23.409 22.133 24.241 20.686 L 20.115 18.309 Z" fill="white" style="stroke-width: 0px;" transform="matrix(1, 0, 0, 1, 4.440892098500626e-16, 4.440892098500626e-16)"/>
    <path d="M 25.23 15.473 L 24.171 15.473 L 24.171 14.42 L 23.114 14.42 L 23.114 15.473 L 22.056 15.473 L 22.056 16.528 L 23.114 16.528 L 23.114 17.579 L 24.171 17.579 L 24.171 16.528 L 25.23 16.528 L 25.23 15.473 Z M 29.198 15.473 L 28.14 15.473 L 28.14 14.42 L 27.082 14.42 L 27.082 15.473 L 26.024 15.473 L 26.024 16.528 L 27.082 16.528 L 27.082 17.579 L 28.14 17.579 L 28.14 16.528 L 29.198 16.528 L 29.198 15.473 Z" fill="white" style="stroke-width: 0px;" transform="matrix(1, 0, 0, 1, 4.440892098500626e-16, 4.440892098500626e-16)"/>
</svg>
