<svg id="tech-sql" viewBox="0 0 32 32" fill="none" xmlns="http://www.w3.org/2000/svg">
    <path d="M 8.145 3.599 C 10.099 2.711 12.877 2.133 16 2.133 C 19.123 2.133 21.901 2.709 23.855 3.599 C 25.907 4.533 26.667 5.604 26.667 6.4 C 26.667 7.198 25.907 8.267 23.855 9.201 C 21.901 10.089 19.123 10.667 16 10.667 C 12.877 10.667 10.099 10.091 8.145 9.201 C 6.093 8.267 5.333 7.196 5.333 6.4 C 5.333 5.602 6.093 4.533 8.145 3.599 Z M 26.667 10.022 L 26.667 12.8 C 26.667 13.598 25.907 14.667 23.855 15.601 C 21.901 16.489 19.123 17.067 16 17.067 C 12.877 17.067 10.099 16.491 8.145 15.601 C 6.093 14.667 5.333 13.596 5.333 12.8 L 5.333 10.022 C 5.911 10.453 6.571 10.829 7.262 11.142 C 9.553 12.183 12.644 12.8 16 12.8 C 19.356 12.8 22.447 12.183 24.738 11.142 C 25.418 10.837 26.065 10.462 26.667 10.022 Z M 28.8 6.4 C 28.8 4.252 26.933 2.656 24.738 1.658 C 22.447 0.617 19.356 0 16 0 C 12.644 0 9.553 0.617 7.262 1.658 C 5.067 2.656 3.2 4.252 3.2 6.4 L 3.2 25.6 C 3.2 27.748 5.067 29.344 7.262 30.342 C 9.553 31.381 12.644 32 16 32 C 19.356 32 22.447 31.383 24.738 30.342 C 26.933 29.344 28.8 27.748 28.8 25.6 L 28.8 6.4 Z M 26.667 16.422 L 26.667 19.2 C 26.667 19.998 25.907 21.067 23.855 22.001 C 21.901 22.889 19.123 23.467 16 23.467 C 12.877 23.467 10.099 22.891 8.145 22.001 C 6.093 21.067 5.333 19.996 5.333 19.2 L 5.333 16.422 C 5.911 16.853 6.571 17.229 7.262 17.542 C 9.553 18.581 12.644 19.2 16 19.2 C 19.356 19.2 22.447 18.583 24.738 17.542 C 25.418 17.237 26.065 16.862 26.667 16.422 Z M 26.667 22.822 L 26.667 25.6 C 26.667 26.398 25.907 27.467 23.855 28.401 C 21.901 29.289 19.123 29.867 16 29.867 C 12.877 29.867 10.099 29.291 8.145 28.401 C 6.093 27.467 5.333 26.396 5.333 25.6 L 5.333 22.822 C 5.911 23.253 6.571 23.629 7.262 23.942 C 9.553 24.981 12.644 25.6 16 25.6 C 19.356 25.6 22.447 24.983 24.738 23.942 C 25.429 23.629 26.089 23.253 26.667 22.822 Z" fill="#0079d6" style="stroke-width: 0px;" transform="matrix(1, 0, 0, 1, 4.440892098500626e-16, 4.440892098500626e-16)"/>
</svg>
