<svg id="tech-csharp" viewBox="0 0 32 32" fill="none" xmlns="http://www.w3.org/2000/svg">
    <path d="M28.85 7.67499L16.775 0.724988C16.575 0.599988 16.3 0.549988 16 0.549988C15.7 0.549988 15.425 0.624988 15.225 0.724988L3.225 7.69999C2.8 7.94999 2.5 8.57499 2.5 9.04999V22.975C2.5 23.25 2.55 23.575 2.75 23.85L29.45 8.34999C29.3 8.04999 29.075 7.82499 28.85 7.67499Z" fill="#9B4F96" style="stroke-width: 0px;" transform="matrix(1, 0, 0, 1, 4.440892098500626e-16, 4.440892098500626e-16)"/>
    <path d="M2.67499 23.825C2.79999 24.025 2.97499 24.2 3.14999 24.3L15.2 31.275C15.4 31.4 15.675 31.45 15.975 31.45C16.275 31.45 16.55 31.375 16.75 31.275L28.75 24.3C29.175 24.05 29.475 23.425 29.475 22.95V9.02501C29.475 8.80001 29.45 8.55001 29.325 8.32501L2.67499 23.825Z" fill="#68217A" style="stroke-width: 0px;" transform="matrix(1, 0, 0, 1, 4.440892098500626e-16, 4.440892098500626e-16)"/>
    <path d="M21.325 19.025C20.275 20.875 18.275 22.125 16 22.125C12.625 22.125 9.875 19.375 9.875 16C9.875 12.625 12.625 9.875 16 9.875C18.275 9.875 20.275 11.125 21.325 13L24.575 11.125C22.875 8.15 19.675 6.125 16 6.125C10.55 6.125 6.125 10.55 6.125 16C6.125 21.45 10.55 25.875 16 25.875C19.65 25.875 22.85 23.875 24.55 20.925L21.325 19.025ZM24.25 16.55L24.475 15.475H23.425V14.3H24.7L25 12.75H26.225L25.925 14.275H26.875L27.175 12.75H28.375L28.075 14.275H28.675V15.45H27.85L27.625 16.525H28.675V17.7H27.4L27.1 19.2H25.875L26.175 17.7H25.225L24.925 19.2H23.725L24.025 17.7H23.425V16.525H24.25V16.55ZM25.45 16.55H26.4L26.625 15.475H25.675L25.45 16.55Z" fill="white" style="stroke-width: 0px;" transform="matrix(1, 0, 0, 1, 4.440892098500626e-16, 4.440892098500626e-16)"/>
</svg>
