<svg id="tech-go" viewBox="0 0 32 32" xmlns="http://www.w3.org/2000/svg">
    <rect width="32" height="32" stroke="none" fill="#000000" opacity="0" transform="matrix(1, 0, 0, 1, 4.440892098500626e-16, 4.440892098500626e-16)"/>
    <g transform="matrix(1.3317509889602661, 0, 0, 1.3317509889602661, 15.981011390686035, 15.787093162536623)">
        <g style="">
            <g transform="matrix(1 0 0 1 2.29 0.16)">
                <path style="stroke: none; stroke-dasharray: none; stroke-linecap: butt; stroke-dashoffset: 0; stroke-linejoin: miter; stroke-miterlimit: 4; fill-rule: nonzero; opacity: 1; stroke-width: 0px; fill: rgb(0, 174, 217);" transform=" translate(-14.29, -12.16)" d="M 22.73 8.61 C 21.83371433272619 7.576791278032534 20.547072702728908 6.9642773753014335 19.18 6.919999999999999 C 16.56804678662722 6.877515964980974 14.26996929471701 8.637305035362665 13.629999999999999 11.169999999999998 L 10 11.17 L 9 13.17 L 12.83 13.17 C 12.291842726378915 14.55425579916734 10.944805555468122 15.453612960754665 9.46 15.42 C 8.644684764338109 15.397380356587789 7.875990253269636 15.034788606083794 7.34 14.42 C 6.752381262473586 13.735228692111862 6.476942958045172 12.836430014503359 6.58 11.940000000000001 C 6.74080412188589 10.048256801318372 8.321437998172511 8.593552547043595 10.219999999999997 8.59 C 11.141175975880419 8.62954843500517 11.99300091689079 9.090492667153638 12.530000000000001 9.84 L 14.16 8.68 C 13.266362896195151 7.421816984584041 11.841800907838323 6.6467962137163354 10.3 6.58 C 7.34387861168023 6.551983529122872 4.8605102260757524 8.796148304905554 4.590000000000001 11.740000000000002 C 4.426935905841038 13.187960894648931 4.87650178871214 14.638173420039584 5.830000000000001 15.74 C 6.7329022829264025 16.764474466068506 8.015535175975193 17.37507998416779 9.379999999999999 17.43 L 9.58 17.43 C 11.348432489271847 17.386402209982077 12.990152768367505 16.50239898277672 13.999999999999998 15.050000000000002 C 14.183317362736437 15.408470612647886 14.408198341953128 15.744113865210108 14.670000000000002 16.05 C 15.572902282926401 17.074474466068505 16.85553517597519 17.68507998416779 18.22 17.740000000000002 L 18.419999999999998 17.740000000000002 C 21.321113181019278 17.706632369120868 23.728994057235163 15.488620235832396 24 12.599999999999998 C 24.152021642415868 11.15104791838636 23.69158979117629 9.704494307011625 22.73 8.61 Z M 22 12.41 C 21.848451726937856 14.306266542878511 20.262303110564496 15.766046176079268 18.36 15.76 C 17.546962742801142 15.727955709922385 16.781814425867204 15.367036692500717 16.24 14.76 C 15.652943575971873 14.070968932860376 15.377770635881186 13.169415484405356 15.479999999999999 12.27 C 15.631074495668896 10.419216999781224 17.144194923766584 8.974874772960707 19 8.91 L 19.13 8.91 C 19.943037257198856 8.942044290077614 20.70818557413279 9.302963307499281 21.25 9.909999999999998 C 21.83615801042413 10.603113440947384 22.107830940291308 11.508689873837985 22 12.41 Z" stroke-linecap="round"/>
            </g>
            <g transform="matrix(1 0 0 1 -9.38 -2.85)">
                <polygon style="stroke: none; stroke-dasharray: none; stroke-linecap: butt; stroke-dashoffset: 0; stroke-linejoin: miter; stroke-miterlimit: 4; fill-rule: nonzero; opacity: 1; stroke-width: 0px; fill: rgb(0, 174, 217);" points="-1.63,0.5 1.63,0.5 1.63,-0.5 -0.97,-0.5 -1.63,0.5 "/>
            </g>
            <g transform="matrix(1 0 0 1 -9.98 -1.06)">
                <polygon style="stroke: none; stroke-dasharray: none; stroke-linecap: butt; stroke-dashoffset: 0; stroke-linejoin: miter; stroke-miterlimit: 4; fill-rule: nonzero; opacity: 1; stroke-width: 0px; fill: rgb(0, 174, 217);" points="-2.02,0.5 2.02,0.5 2.02,-0.5 -1.52,-0.5 -2.02,0.5 "/>
            </g>
            <g transform="matrix(1 0 0 1 -9.04 0.72)">
                <polygon style="stroke: none; stroke-dasharray: none; stroke-linecap: butt; stroke-dashoffset: 0; stroke-linejoin: miter; stroke-miterlimit: 4; fill-rule: nonzero; opacity: 1; stroke-width: 0px; fill: rgb(0, 174, 217);" points="-0.96,0.5 0.97,0.5 0.97,-0.5 -0.25,-0.5 -0.96,0.5 "/>
            </g>
        </g>
    </g>
</svg>
