<svg id="tech-rust" viewBox="0 0 32 32" xmlns="http://www.w3.org/2000/svg">
    <rect width="32" height="32" stroke="none" fill="#000000" opacity="0" transform="matrix(1, 0, 0, 1, 4.440892098500626e-16, 4.440892098500626e-16)"/>
    <g transform="matrix(0.800000011920929, 0, 0, 0.800000011920929, 16, 16)">
        <path style="stroke: none; stroke-width: 1; stroke-dasharray: none; stroke-linecap: butt; stroke-dashoffset: 0; stroke-linejoin: miter; stroke-miterlimit: 4; fill-rule: nonzero; opacity: 1;" transform=" translate(-24, -24)" d="M 42.164 24 L 44 22.03 L 41.815 20.456 L 43.230999999999995 18.166 L 40.78099999999999 17.049 L 41.72299999999999 14.527 L 39.10199999999999 13.908999999999999 L 39.53399999999999 11.251 L 36.84299999999999 11.155999999999999 L 36.74799999999999 8.465 L 34.08999999999999 8.897 L 33.47199999999999 6.276 L 30.94999999999999 7.218 L 29.832999999999988 4.768 L 27.54299999999999 6.183999999999999 L 25.97 4 L 24 5.836 L 22.03 4 L 20.456 6.1850000000000005 L 18.166 4.769 L 17.049 7.219 L 14.527 6.277 L 13.908999999999999 8.898 L 11.251 8.466 L 11.155999999999999 11.157 L 8.465 11.252 L 8.897 13.91 L 6.276 14.528 L 7.218 17.05 L 4.768 18.167 L 6.183999999999999 20.457 L 4 22.03 L 5.836 24 L 4 25.97 L 6.1850000000000005 27.544 L 4.769 29.834 L 7.219 30.951 L 6.277 33.473 L 8.898 34.091 L 8.466 36.749 L 11.157 36.844 L 11.252 39.535000000000004 L 13.91 39.103 L 14.528 41.724000000000004 L 17.05 40.782000000000004 L 18.167 43.232000000000006 L 20.457 41.81600000000001 L 22.03 44 L 24 42.164 L 25.97 44 L 27.544 41.815 L 29.834 43.230999999999995 L 30.951 40.78099999999999 L 33.473 41.72299999999999 L 34.091 39.10199999999999 L 36.749 39.53399999999999 L 36.844 36.84299999999999 L 39.535000000000004 36.74799999999999 L 39.103 34.08999999999999 L 41.724000000000004 33.47199999999999 L 40.782000000000004 30.94999999999999 L 43.232000000000006 29.832999999999988 L 41.81600000000001 27.54299999999999 L 44 25.97 L 42.164 24 z M 24 7 C 24.552 7 25 7.448 25 8 C 25 8.552 24.552 9 24 9 C 23.448 9 23 8.552 23 8 C 23 7.448 23.448 7 24 7 z M 9 18 C 9.552 18 10 18.448 10 19 C 10 19.552 9.552 20 9 20 C 8.448 20 8 19.552 8 19 C 8 18.448 8.448 18 9 18 z M 8.808 29 C 8.29 27.426 8 25.748 8 24 C 8 23.296 8.061 22.608 8.149 21.928 L 10.855999999999998 20.478 C 11.405999999999999 20.184 11.679999999999998 19.583000000000002 11.593999999999998 19 L 13 19 L 13 29 L 8.808 29 z M 15 38 C 14.448 38 14 37.552 14 37 C 14 36.448 14.448 36 15 36 C 15.552 36 16 36.448 16 37 C 16 37.552 15.552 38 15 38 z M 33 38 C 32.448 38 32 37.552 32 37 C 32 36.448 32.448 36 33 36 C 33.552 36 34 36.448 34 37 C 34 37.552 33.552 38 33 38 z M 35.444 35.171 L 32.332 34.674 C 31.548000000000002 34.549 30.811 35.083 30.686 35.867 L 30.227 38.744 C 28.313 39.552 26.209 40 24 40 C 21.744 40 19.6 39.528 17.654 38.686 L 17.224 35.994 C 17.099 35.21 16.362000000000002 34.676 15.578 34.801 L 12.645999999999999 35.269000000000005 C 11.954999999999998 34.57300000000001 11.326999999999998 33.813 10.773 32.999 L 23.951 32.999 L 23.951 28.999000000000002 L 20 28.999000000000002 L 20 25.999000000000002 L 22.872 25.999000000000002 C 28.346 25.999000000000002 23.858999999999998 32.999 31.119 32.999 L 37.227 32.999 C 36.697 33.777 36.098 34.501 35.444 35.171 z M 20.238 22 L 20.238 19 L 25.436 19 C 26.256 19 26.921 19.665 26.921 20.485 L 26.921 20.515 C 26.921 21.335 26.256 22 25.436 22 L 20.238 22 z M 39.927 25.436 L 37.316 25.436 L 37.316 26.668 C 37.316 28.038 36.462 29 35.472 29 C 32.925000000000004 29 33.617000000000004 25.463 30.519000000000002 23.92 C 32.831 23.539 34.603 21.490000000000002 34.603 19 C 34.603 16.239 32.431000000000004 14 29.752000000000002 14 L 23.950000000000003 14 L 15.782000000000004 14 L 11.520000000000003 14 C 13.792000000000003 11.168 17.003000000000004 9.123999999999999 20.686000000000003 8.347999999999999 L 22.983000000000004 10.645 C 23.544000000000004 11.206 24.454000000000004 11.206 25.015000000000004 10.645 L 27.312000000000005 8.347999999999999 C 31.952000000000005 9.325999999999999 35.852000000000004 12.309999999999999 38.056000000000004 16.354999999999997 L 36.889 18.532999999999998 C 36.514 19.232999999999997 36.778000000000006 20.104 37.477000000000004 20.477999999999998 L 39.819 21.732 C 39.927 22.475 40 23.228 40 24 C 40 24.485 39.97 24.962 39.927 25.436 z M 39 20 C 38.448 20 38 19.552 38 19 C 38 18.448 38.448 18 39 18 C 39.552 18 40 18.448 40 19 C 40 19.552 39.552 20 39 20 z" stroke-linecap="round"/>
    </g>
</svg>
