<svg id="tech-aws" viewBox="0 0 32 18" fill="none" xmlns="http://www.w3.org/2000/svg">
    <defs>
        <clipPath id="clip0_262_23">
            <rect width="53.55" height="32" fill="white"/>
        </clipPath>
    </defs>
    <g clip-path="url(#clip0_262_23)" transform="matrix(0.6002990007400513, 0, 0, 0.5646669864654541, -0.07339200377464294, -0.010050000622868538)">
        <path d="M15.1446 11.5949C15.1446 12.251 15.2157 12.7829 15.3397 13.1729C15.4972 13.6118 15.6868 14.0384 15.9069 14.4494C15.9956 14.5912 16.031 14.733 16.031 14.8572C16.031 15.0344 15.9247 15.2117 15.6942 15.3891L14.5774 16.1337C14.4178 16.2401 14.2582 16.2932 14.1162 16.2932C13.939 16.2932 13.7617 16.2046 13.5843 16.045C13.3452 15.7885 13.1315 15.5094 12.9462 15.2117C12.7688 14.9106 12.5915 14.5734 12.3966 14.1658C11.0135 15.7967 9.27603 16.6123 7.18411 16.6124C5.69496 16.6124 4.50699 16.1868 3.63818 15.336C2.76958 14.4847 2.32639 13.3501 2.32639 11.9318C2.32639 10.4249 2.85825 9.20158 3.93977 8.27965C5.02108 7.35771 6.45731 6.89675 8.28341 6.89675C8.88618 6.89675 9.50673 6.94987 10.1626 7.03855C10.8187 7.12723 11.4924 7.26903 12.2016 7.42862V6.13439C12.2016 4.78684 11.9178 3.84733 11.3682 3.29769C10.8009 2.74804 9.84346 2.482 8.47833 2.482C7.85778 2.482 7.21967 2.55311 6.56356 2.71269C5.90746 2.87228 5.26934 3.0672 4.64879 3.31547C4.36518 3.43949 4.15248 3.51039 4.02824 3.54595C3.90401 3.5815 3.81554 3.59907 3.74463 3.59907C3.49637 3.59907 3.37235 3.42171 3.37235 3.04943V2.18062C3.37235 1.89701 3.4079 1.6843 3.49637 1.56028C3.58505 1.43604 3.74463 1.31201 3.9929 1.18799C4.61337 0.868685 5.35795 0.602715 6.22662 0.390079C7.09564 0.159596 8.01758 0.0533473 8.99263 0.0533473C11.1025 0.0533473 12.645 0.531883 13.6379 1.48937C14.6129 2.44665 15.1094 3.90046 15.1094 5.85079V11.5949H15.1446ZM7.94646 14.2898C8.53167 14.2898 9.13444 14.1835 9.77256 13.9706C10.4109 13.7579 10.9783 13.3679 11.4568 12.836C11.7407 12.4993 11.9534 12.127 12.0596 11.7013C12.1661 11.2759 12.237 10.7616 12.237 10.1589V9.41429C11.6993 9.28351 11.1547 9.18289 10.6058 9.1129C10.0531 9.04277 9.49648 9.00721 8.9393 9.00645C7.75133 9.00645 6.88273 9.23693 6.29773 9.71567C5.71274 10.1944 5.42892 10.8681 5.42892 11.7545C5.42892 12.5877 5.64163 13.2083 6.08482 13.6339C6.51044 14.0771 7.13099 14.2898 7.94646 14.2898ZM22.1831 16.2046C21.864 16.2046 21.6512 16.1514 21.5094 16.0272C21.3676 15.921 21.2434 15.6727 21.1372 15.336L16.9709 1.63118C16.8642 1.27646 16.8111 1.04597 16.8111 0.921949C16.8111 0.638341 16.9529 0.47855 17.2367 0.47855H18.9741C19.3109 0.47855 19.5415 0.531883 19.6656 0.655909C19.8074 0.762367 19.9138 1.01063 20.0201 1.34736L22.9986 13.0842L25.7644 1.34736C25.8531 0.992851 25.9595 0.762367 26.1011 0.655909C26.2431 0.549661 26.4914 0.478759 26.8106 0.478759H28.2288C28.5656 0.478759 28.7962 0.531883 28.9378 0.655909C29.0799 0.762367 29.2039 1.01063 29.2748 1.34736L32.0761 13.2261L35.1431 1.34736C35.2494 0.992851 35.3736 0.762367 35.4976 0.655909C35.6394 0.549661 35.8699 0.478759 36.1891 0.478759H37.8378C38.1216 0.478759 38.2812 0.620563 38.2812 0.921949C38.2812 1.01063 38.2634 1.09931 38.2457 1.20556C38.2279 1.3118 38.1925 1.45382 38.1216 1.64896L33.8487 15.3535C33.7424 15.7082 33.6183 15.9387 33.4764 16.045C33.3346 16.1514 33.1041 16.2223 32.8029 16.2223H31.2782C30.9413 16.2223 30.7108 16.1692 30.5688 16.045C30.427 15.921 30.303 15.6905 30.2321 15.336L27.4838 3.90046L24.7536 15.318C24.6651 15.6727 24.5586 15.9032 24.4168 16.0272C24.275 16.1514 24.0268 16.2046 23.7078 16.2046H22.1831ZM44.9652 16.6833C44.0433 16.6833 43.1214 16.5769 42.235 16.3641C41.3484 16.1514 40.6572 15.9207 40.1962 15.6551C39.9124 15.4953 39.7172 15.3182 39.6465 15.1586C39.5776 15.0021 39.5414 14.8331 39.5401 14.6621V13.7579C39.5401 13.3856 39.6819 13.2083 39.9479 13.2083C40.0565 13.2087 40.1643 13.2267 40.2671 13.2616C40.3733 13.2972 40.5329 13.3679 40.7103 13.4388C41.3364 13.7144 41.9901 13.9224 42.6604 14.0593C43.3549 14.2001 44.0617 14.2714 44.7703 14.272C45.8872 14.272 46.756 14.0771 47.3588 13.687C47.9615 13.297 48.2807 12.7297 48.2807 12.0027C48.2807 11.5064 48.1211 11.0986 47.8019 10.7616C47.4828 10.4247 46.88 10.1235 46.0114 9.8397L43.4405 9.042C42.1463 8.63416 41.189 8.03139 40.6038 7.23348C40.0188 6.45335 39.7174 5.58475 39.7174 4.66281C39.7174 3.91824 39.877 3.2622 40.1962 2.69471C40.5151 2.12749 40.9408 1.63118 41.4726 1.24111C42.0045 0.833269 42.6073 0.531883 43.3165 0.319177C44.0255 0.106471 44.7701 0.0177917 45.5502 0.0177917C45.9403 0.0177917 46.3481 0.0355695 46.7382 0.0886937C47.146 0.141818 47.5183 0.21272 47.8906 0.283622C48.2451 0.372302 48.5821 0.460981 48.9012 0.567439C49.2203 0.673687 49.4685 0.780005 49.6458 0.886393C49.8941 1.02841 50.0712 1.17021 50.1777 1.32979C50.2841 1.4716 50.3373 1.66659 50.3373 1.91479V2.74804C50.3373 3.12033 50.1955 3.31547 49.9294 3.31547C49.7876 3.31547 49.5571 3.24435 49.256 3.10255C48.2451 2.64158 47.1104 2.4111 45.8518 2.4111C44.8412 2.4111 44.0433 2.57068 43.4937 2.90762C42.9442 3.24435 42.6604 3.75865 42.6604 4.48545C42.6604 4.98197 42.8378 5.40739 43.1923 5.74433C43.5468 6.08127 44.2029 6.418 45.1426 6.71939L47.6601 7.5173C48.9366 7.92514 49.8585 8.49235 50.4082 9.21915C50.9578 9.94595 51.2239 10.7794 51.2239 11.7013C51.2239 12.4637 51.0641 13.1552 50.7627 13.7579C50.4437 14.3607 50.0181 14.8926 49.4685 15.3182C48.9188 15.7614 48.2629 16.0805 47.5006 16.311C46.7026 16.5593 45.8694 16.6833 44.9652 16.6833Z" fill="#252F3E" style="stroke-width: 0px;"/>
        <path d="M48.316 25.2997C42.4832 29.608 34.0084 31.895 26.7219 31.895C16.5097 31.895 7.30832 28.1186 0.358462 21.8424C-0.191185 21.3461 0.305129 20.6724 0.961024 21.0623C8.47831 25.4239 17.7508 28.0655 27.3424 28.0655C33.8135 28.0655 40.923 26.7181 47.4652 23.9523C48.4402 23.5089 49.2735 24.5907 48.316 25.2997ZM50.7451 22.5339C50.0005 21.5766 45.8162 22.0729 43.9192 22.3034C43.3518 22.3745 43.2631 21.878 43.7774 21.5057C47.1105 19.1653 52.5889 19.8392 53.2271 20.6191C53.8654 21.417 53.0497 26.8953 49.9294 29.5193C49.4509 29.9271 48.9899 29.7144 49.2026 29.1826C49.9116 27.4272 51.4896 23.4736 50.7451 22.5339Z" fill="#FF9900" style="stroke-width: 0px;"/>
    </g>
</svg>
