<svg xmlns="http://www.w3.org/2000/svg" style="display:none">
    <symbol id="icon-arrow-left" viewBox="0 0 24 24">
        <path fill="currentColor"
              d="M 16.453 0.282 C 16.536 0.195 16.636 0.124 16.744 0.075 C 16.853 0.025 16.971 0 17.091 0 C 17.211 0 17.331 0.025 17.439 0.075 C 17.547 0.124 17.647 0.195 17.731 0.282 C 17.902 0.469 17.997 0.714 17.997 0.975 C 17.997 1.23 17.902 1.48 17.731 1.662 L 8.166 11.995 L 17.731 22.333 C 17.817 22.425 17.883 22.536 17.931 22.657 C 17.979 22.777 18.003 22.905 18 23.032 C 17.997 23.161 17.971 23.293 17.922 23.413 C 17.874 23.532 17.803 23.641 17.715 23.728 C 17.631 23.815 17.535 23.883 17.425 23.928 C 17.314 23.976 17.199 24 17.079 24 C 16.962 23.995 16.849 23.968 16.741 23.92 C 16.633 23.871 16.533 23.8 16.453 23.713 L 6.279 12.718 C 6.102 12.525 6 12.267 6 11.995 C 6 11.727 6.102 11.467 6.279 11.274 L 16.453 0.282 Z"></path>
    </symbol>

    <symbol id="icon-arrow-left-double" viewBox="0 0 24 24">
        <path fill="currentColor"
              d="M 12.529 0.284 C 12.614 0.194 12.714 0.123 12.825 0.074 C 12.936 0.025 13.055 0 13.175 0 C 13.295 0 13.414 0.025 13.524 0.074 C 13.636 0.123 13.736 0.194 13.82 0.284 C 13.992 0.469 14.087 0.716 14.087 0.974 C 14.087 1.232 13.992 1.479 13.82 1.664 L 4.181 11.998 L 13.82 22.334 C 13.906 22.427 13.975 22.537 14.021 22.657 C 14.067 22.778 14.089 22.907 14.088 23.037 C 14.087 23.166 14.061 23.295 14.013 23.414 C 13.963 23.533 13.893 23.641 13.803 23.732 C 13.719 23.818 13.619 23.887 13.509 23.933 C 13.399 23.979 13.282 24.001 13.163 24 C 13.045 23.998 12.928 23.972 12.82 23.924 C 12.711 23.875 12.613 23.804 12.529 23.715 L 2.281 12.72 C 2.101 12.526 2 12.268 2 11.998 C 2 11.728 2.101 11.469 2.281 11.276 L 12.529 0.284 Z M 20.441 0.284 C 20.525 0.194 20.625 0.123 20.736 0.074 C 20.847 0.025 20.966 0 21.086 0 C 21.206 0 21.325 0.025 21.436 0.074 C 21.546 0.123 21.647 0.194 21.729 0.284 C 21.903 0.469 21.999 0.716 21.999 0.974 C 21.999 1.232 21.903 1.479 21.729 1.664 L 12.093 11.998 L 21.729 22.334 C 21.818 22.427 21.886 22.537 21.933 22.657 C 21.978 22.778 22.001 22.907 22 23.037 C 21.999 23.166 21.973 23.295 21.923 23.414 C 21.875 23.533 21.804 23.641 21.715 23.732 C 21.629 23.818 21.529 23.887 21.42 23.933 C 21.309 23.979 21.194 24.001 21.075 24 C 20.957 23.998 20.84 23.972 20.729 23.924 C 20.622 23.875 20.524 23.804 20.441 23.715 L 10.193 12.72 C 10.013 12.526 9.912 12.268 9.912 11.998 C 9.912 11.728 10.013 11.469 10.193 11.276 L 20.441 0.284 Z"></path>
    </symbol>

    <symbol id="icon-arrow-right" viewBox="0 0 24 24">
        <path fill="currentColor"
              d="M 7.547 0.284 C 7.464 0.194 7.364 0.123 7.255 0.074 C 7.145 0.025 7.026 0 6.907 0 C 6.788 0 6.67 0.025 6.56 0.074 C 6.45 0.123 6.35 0.194 6.267 0.284 C 6.096 0.469 6.001 0.716 6.001 0.974 C 6.001 1.231 6.096 1.479 6.267 1.663 L 15.834 11.998 L 6.267 22.334 C 6.181 22.427 6.113 22.537 6.067 22.657 C 6.021 22.778 5.999 22.907 6 23.036 C 6.001 23.166 6.027 23.294 6.076 23.414 C 6.124 23.533 6.195 23.641 6.283 23.732 C 6.367 23.818 6.466 23.886 6.575 23.932 C 6.684 23.978 6.801 24.001 6.918 24 C 7.036 23.998 7.152 23.972 7.26 23.923 C 7.368 23.875 7.465 23.804 7.547 23.715 L 17.721 12.719 C 17.9 12.526 18 12.267 18 11.998 C 18 11.728 17.9 11.469 17.721 11.276 L 7.547 0.284 Z"></path>
    </symbol>

    <symbol id="icon-arrow-right-double" viewBox="0 0 24 24">
        <path fill="currentColor"
              d="M 12.523 0.284 C 12.448 0.194 12.358 0.123 12.257 0.074 C 12.158 0.025 12.051 0 11.943 0 C 11.835 0 11.728 0.025 11.628 0.074 C 11.528 0.123 11.438 0.194 11.362 0.284 C 11.208 0.469 11.121 0.716 11.121 0.974 C 11.121 1.232 11.208 1.479 11.362 1.664 L 20.037 11.998 L 11.362 22.334 C 11.284 22.427 11.223 22.537 11.181 22.657 C 11.139 22.778 11.119 22.907 11.12 23.037 C 11.121 23.166 11.145 23.295 11.189 23.414 C 11.233 23.533 11.297 23.641 11.376 23.732 C 11.453 23.818 11.543 23.887 11.641 23.933 C 11.741 23.979 11.846 24.001 11.953 24 C 12.059 23.998 12.164 23.972 12.262 23.924 C 12.361 23.875 12.449 23.804 12.523 23.715 L 21.747 12.72 C 21.909 12.526 22 12.268 22 11.998 C 22 11.728 21.909 11.469 21.747 11.276 L 12.523 0.284 Z M 5.403 0.284 C 5.327 0.194 5.237 0.123 5.138 0.074 C 5.037 0.025 4.93 0 4.822 0 C 4.714 0 4.607 0.025 4.508 0.074 C 4.408 0.123 4.317 0.194 4.243 0.284 C 4.087 0.469 4.001 0.716 4.001 0.974 C 4.001 1.232 4.087 1.479 4.243 1.664 L 12.917 11.998 L 4.243 22.334 C 4.164 22.427 4.102 22.537 4.061 22.657 C 4.02 22.778 3.999 22.907 4 23.037 C 4.001 23.166 4.025 23.295 4.069 23.414 C 4.113 23.533 4.176 23.641 4.257 23.732 C 4.333 23.818 4.423 23.887 4.522 23.933 C 4.621 23.979 4.726 24.001 4.833 24 C 4.939 23.998 5.044 23.972 5.143 23.924 C 5.24 23.875 5.328 23.804 5.403 23.715 L 14.627 12.72 C 14.789 12.526 14.88 12.268 14.88 11.998 C 14.88 11.728 14.789 11.469 14.627 11.276 L 5.403 0.284 Z"></path>
    </symbol>

    <symbol id="icon-bookmark" viewBox="0 0 24 24">
        <path fill="none" stroke="currentColor" stroke-linecap="round" stroke-linejoin="round" stroke-width="2"
              d="M7.527 20.841C6.861 21.274 6 20.772 6 19.952V3.942c0-.52.336-.942.75-.942h10.5c.414 0 .75.422.75.942v16.01c0 .82-.861 1.322-1.527.89l-3.946-2.562a.96.96 0 0 0-1.054 0z" />
    </symbol>

    <symbol id="icon-burger" viewBox="0 0 24 24">
        <path d="M4 18L20 18" stroke="currentColor" stroke-width="2" stroke-linecap="round" />
        <path d="M4 12L20 12" stroke="currentColor" stroke-width="2" stroke-linecap="round" />
        <path d="M4 6L20 6" stroke="currentColor" stroke-width="2" stroke-linecap="round" />
    </symbol>

    <symbol id="icon-cap-graduate" viewBox="0 0 24 24">
        <g fill="none" stroke="currentColor" stroke-linecap="round" stroke-linejoin="round" stroke-width="2">
            <path
                d="M21.42 10.922a1 1 0 0 0-.019-1.838L12.83 5.18a2 2 0 0 0-1.66 0L2.6 9.08a1 1 0 0 0 0 1.832l8.57 3.908a2 2 0 0 0 1.66 0zM22 10v6" />
            <path d="M6 12.5V16a6 3 0 0 0 12 0v-3.5" />
        </g>
    </symbol>

    <symbol id="icon-check" viewBox="0 0 24 24">
        <path d="M4 12.6111L8.92308 17.5L20 6.5" fill="none" stroke="currentColor" stroke-width="2"
              stroke-linecap="round" stroke-linejoin="round" />
    </symbol>

    <symbol id="icon-check-circle" viewBox="0 0 48 48">
        <g fill="none" stroke="currentColor" stroke-linejoin="round" stroke-width="4">
            <path
                d="M24 44a19.94 19.94 0 0 0 14.142-5.858A19.94 19.94 0 0 0 44 24a19.94 19.94 0 0 0-5.858-14.142A19.94 19.94 0 0 0 24 4A19.94 19.94 0 0 0 9.858 9.858A19.94 19.94 0 0 0 4 24a19.94 19.94 0 0 0 5.858 14.142A19.94 19.94 0 0 0 24 44Z" />
            <path stroke-linecap="round" d="m16 24l6 6l12-12" />
        </g>
    </symbol>

    <symbol id="icon-chevron-down" viewBox="0 0 24 24">
        <path fill="none" stroke="currentColor" stroke-linecap="round" stroke-linejoin="round" stroke-width="2"
              d="M4 8 L12 16 L20 8" />
    </symbol>

    <symbol id="icon-clock" viewBox="0 0 24 24">
        <g fill="none" stroke="currentColor" stroke-linecap="round" stroke-linejoin="round" stroke-width="2">
            <path d="M3 12a9 9 0 1 0 18 0a9 9 0 0 0-18 0" />
            <path d="M12 7v5l3 3" />
        </g>
    </symbol>

    <symbol id="icon-company" viewBox="0 0 32 32">
        <rect width="32" height="32" stroke="none" fill="#000000" opacity="0"
              transform="matrix(1, 0, 0, 1, 4.440892098500626e-16, 4.440892098500626e-16)" />
        <g transform="matrix(2.6666669845581055, 0, 0, 2.6666669845581055, 16, 16)">
            <path
                style="stroke: none; stroke-dasharray: none; stroke-linecap: butt; stroke-dashoffset: 0; stroke-linejoin: miter; stroke-miterlimit: 4; fill: currentColor; fill-rule: nonzero; opacity: 1; stroke-width: 0px;"
                transform=" translate(-8, -8)"
                d="M 7.5 2 C 7.223869061895771 2.0000276089526747 7.000027608952674 2.223869061895771 7 2.5000000000000004 L 7 4 L 3.5 4 C 3.2238690618957704 4.000027608952675 3.0000276089526743 4.223869061895771 3 4.5 L 3 8 L 2.5 8 C 2.2238690618957704 8.000027608952674 2.0000276089526743 8.22386906189577 2 8.5 L 2 14 L 3 14 L 3 9 L 7 9 L 7 14 L 8 14 L 8 3 L 13 3 L 13 14 L 14 14 L 14 2.5 C 13.999972391047326 2.2238690618957704 13.77613093810423 2.0000276089526747 13.5 2 L 7.5 2 z M 9 4 L 9 5 L 10 5 L 10 4 L 9 4 z M 11 4 L 11 5 L 12 5 L 12 4 L 11 4 z M 4 5 L 7 5 L 7 8 L 4 8 L 4 5 z M 5 6 L 5 7 L 6 7 L 6 6 L 5 6 z M 9 6 L 9 7 L 10 7 L 10 6 L 9 6 z M 11 6 L 11 7 L 12 7 L 12 6 L 11 6 z M 9 8 L 9 9 L 10 9 L 10 8 L 9 8 z M 11 8 L 11 9 L 12 9 L 12 8 L 11 8 z M 4 10 L 4 11 L 6 11 L 6 10 L 4 10 z M 9 10 L 9 11 L 10 11 L 10 10 L 9 10 z M 11 10 L 11 11 L 12 11 L 12 10 L 11 10 z M 4 12 L 4 13 L 6 13 L 6 12 L 4 12 z M 9 12 L 9 13 L 10 13 L 10 12 L 9 12 z M 11 12 L 11 13 L 12 13 L 12 12 L 11 12 z"
                stroke-linecap="round" />
        </g>
    </symbol>

    <symbol id="icon-globe" viewBox="0 0 32 32">
        <ellipse style="stroke: currentColor; fill: none; stroke-width: 1.5;" cx="16" cy="16" rx="12" ry="12" />
        <ellipse style="stroke: currentColor; fill: none; stroke-width: 1.5;" cx="16" cy="16" rx="4.854" ry="11.903" />
        <path style="stroke: currentColor; stroke-width: 1.5; transform-origin: 16px 12px;"
              d="M 5.16 11.977 L 26.844 11.977" />
        <path style="stroke: currentColor; stroke-width: 1.5; transform-origin: 16px 20px;" d="M 5.16 20 L 26.844 20" />
    </symbol>

    <symbol id="icon-link" viewBox="0 0 24 24">
        <path fill="currentColor" d="M19 13v6a2 2 0 0 1-2 2H5a2 2 0 0 1-2-2V7a2 2 0 0 1 2-2h6v2H5v12h12v-6zM13 3v2h4.586l-7.793 7.793l1.414 1.414L19 6.414V11h2V3z"/>
    </symbol>

    <symbol id="icon-location" viewBox="0 0 24 24">
        <path fill="currentColor" d="M 12 0 C 7.583 0 4 3.583 4 8 C 4 12.418 8.666 18.668 12 24 C 15.332 18.668 20 12.418 20 8 C 20 3.583 16.418 0 12 0 Z M 12 12.668 C 10.159 12.668 8.666 11.174 8.666 9.334 C 8.666 7.491 10.159 6 12 6 C 13.841 6 15.332 7.491 15.332 9.334 C 15.332 11.174 13.841 12.668 12 12.668 Z" style="stroke-width: 0px;"/>
    </symbol>

    <symbol id="icon-money" viewBox="0 0 24 24">
        <path fill="none" stroke="currentColor" stroke-linecap="round" stroke-linejoin="round" stroke-width="1.6" d="M6.5 15H6m12-6h-.5M3 6.5c7 2 11-2 18 0v11c-7-2-11 2-18 0zm8.47 3.106l.098-.02a2.451 2.451 0 0 1 .961 4.808l-.097.02a2.452 2.452 0 0 1-.961-4.808Z"/>
    </symbol>

    <symbol id="icon-moon" viewBox="0 0 32 32">
        <path style="stroke: currentColor; stroke-width: 1.5; fill: none;" stroke-linecap="round" stroke-linejoin="round" transform="matrix(-0.7071068286895752, 0.7071068286895752, -0.7071068286895752, -0.7071068286895752, 934.2892456054688, -207.70388793945312)" d="M 801.408 479.913 A 12 12 0 1 1 801.408 502.087 A 11.598 11.598 0 0 0 801.408 479.913 Z"/>
    </symbol>

    <symbol id="icon-sun" viewBox="0 0 32 32">
        <path d="M16 22.6667C19.6819 22.6667 22.6667 19.6819 22.6667 16C22.6667 12.3181 19.6819 9.33334 16 9.33334C12.3181 9.33334 9.33333 12.3181 9.33333 16C9.33333 19.6819 12.3181 22.6667 16 22.6667Z" fill="none" stroke="currentColor" stroke-width="2"/>
        <path d="M16 2.66666V5.33332" stroke="currentColor" stroke-width="2" stroke-linecap="round"/>
        <path d="M16 26.6667V29.3333" stroke="currentColor" stroke-width="2" stroke-linecap="round"/>
        <path d="M5.33333 16H2.66667" stroke="currentColor" stroke-width="2" stroke-linecap="round"/>
        <path d="M29.3333 16H26.6667" stroke="currentColor" stroke-width="2" stroke-linecap="round"/>
        <path d="M26.3704 5.63022L23.4077 8.33899" stroke="currentColor" stroke-width="2" stroke-linecap="round"/>
        <path d="M5.62956 5.63022L8.59224 8.33899" stroke="currentColor" stroke-width="2" stroke-linecap="round"/>
        <path d="M8.59245 23.4076L5.62948 26.3705" stroke="currentColor" stroke-width="2" stroke-linecap="round"/>
        <path d="M26.3704 26.3697L23.4077 23.4068" stroke="currentColor" stroke-width="2" stroke-linecap="round"/>
    </symbol>

    <symbol id="icon-user" viewBox="0 0 24 24">
        <path fill="currentColor" d="M12 12.25a3.75 3.75 0 1 1 3.75-3.75A3.75 3.75 0 0 1 12 12.25m0-6a2.25 2.25 0 1 0 2.25 2.25A2.25 2.25 0 0 0 12 6.25m7 13a.76.76 0 0 1-.75-.75c0-1.95-1.06-3.25-6.25-3.25s-6.25 1.3-6.25 3.25a.75.75 0 0 1-1.5 0c0-4.75 5.43-4.75 7.75-4.75s7.75 0 7.75 4.75a.76.76 0 0 1-.75.75"/>
    </symbol>

    <symbol id="icon-x-mark" viewBox="0 0 24 24">
        <g clip-path="url(#clip0_20_20)" id="object-0" transform="matrix(0.5, 0, 0, 0.5, 0, 0)">
            <path fill="currentColor" stroke="currentColor" fill-rule="evenodd" clip-rule="evenodd" d="M0.490426 0.490426C1.14433 -0.163475 2.20451 -0.163475 2.85841 0.490426L24 21.632L45.1416 0.490426C45.7955 -0.163475 46.8557 -0.163475 47.5096 0.490426C48.1635 1.14433 48.1635 2.20451 47.5096 2.85841L26.368 24L47.5096 45.1416C48.1635 45.7955 48.1635 46.8557 47.5096 47.5096C46.8557 48.1635 45.7955 48.1635 45.1416 47.5096L24 26.368L2.85841 47.5096C2.20451 48.1635 1.14433 48.1635 0.490426 47.5096C-0.163475 46.8557 -0.163475 45.7955 0.490426 45.1416L21.632 24L0.490426 2.85841C-0.163475 2.20451 -0.163475 1.14433 0.490426 0.490426Z"></path>
        </g>
    </symbol>
</svg>
