<svg width="135" height="31" viewBox="0 0 135 31" fill="none" xmlns="http://www.w3.org/2000/svg">
<path d="M0.943182 24V0.727272H3.625V9.31818H3.85227C4.04924 9.01515 4.32197 8.62879 4.67045 8.15909C5.02652 7.68182 5.53409 7.25758 6.19318 6.88636C6.85985 6.50758 7.76136 6.31818 8.89773 6.31818C10.3674 6.31818 11.6629 6.68561 12.7841 7.42045C13.9053 8.1553 14.7803 9.19697 15.4091 10.5455C16.0379 11.8939 16.3523 13.4848 16.3523 15.3182C16.3523 17.1667 16.0379 18.7689 15.4091 20.125C14.7803 21.4735 13.9091 22.5189 12.7955 23.2614C11.6818 23.9962 10.3977 24.3636 8.94318 24.3636C7.82197 24.3636 6.92424 24.178 6.25 23.8068C5.57576 23.428 5.05682 23 4.69318 22.5227C4.32955 22.0379 4.04924 21.6364 3.85227 21.3182H3.53409V24H0.943182ZM3.57955 15.2727C3.57955 16.5909 3.77273 17.7538 4.15909 18.7614C4.54545 19.7614 5.10985 20.5455 5.85227 21.1136C6.5947 21.6742 7.50379 21.9545 8.57955 21.9545C9.70076 21.9545 10.6364 21.6591 11.3864 21.0682C12.1439 20.4697 12.7121 19.6667 13.0909 18.6591C13.4773 17.6439 13.6705 16.5152 13.6705 15.2727C13.6705 14.0455 13.4811 12.9394 13.1023 11.9545C12.7311 10.9621 12.1667 10.178 11.4091 9.60227C10.6591 9.01894 9.71591 8.72727 8.57955 8.72727C7.48864 8.72727 6.57197 9.00379 5.82955 9.55682C5.08712 10.1023 4.52652 10.8674 4.14773 11.8523C3.76894 12.8295 3.57955 13.9697 3.57955 15.2727ZM21.5568 30.5455C21.1023 30.5455 20.697 30.5076 20.3409 30.4318C19.9848 30.3636 19.7386 30.2955 19.6023 30.2273L20.2841 27.8636C20.9356 28.0303 21.5114 28.0909 22.0114 28.0455C22.5114 28 22.9545 27.7765 23.3409 27.375C23.7348 26.9811 24.0947 26.3409 24.4205 25.4545L24.9205 24.0909L18.4659 6.54545H21.375L26.1932 20.4545H26.375L31.1932 6.54545H34.1023L26.6932 26.5455C26.3598 27.447 25.947 28.1932 25.4545 28.7841C24.9621 29.3826 24.3902 29.8258 23.7386 30.1136C23.0947 30.4015 22.3674 30.5455 21.5568 30.5455ZM45.233 6.54545V8.81818H36.1875V6.54545H45.233ZM38.8239 2.36364H41.5057V19C41.5057 19.7576 41.6155 20.3258 41.8352 20.7045C42.0625 21.0758 42.3504 21.3258 42.6989 21.4545C43.0549 21.5758 43.4299 21.6364 43.8239 21.6364C44.1193 21.6364 44.3617 21.6212 44.5511 21.5909C44.7405 21.553 44.892 21.5227 45.0057 21.5L45.5511 23.9091C45.3693 23.9773 45.1155 24.0455 44.7898 24.1136C44.464 24.1894 44.0511 24.2273 43.5511 24.2273C42.7936 24.2273 42.0511 24.0644 41.3239 23.7386C40.6042 23.4129 40.0057 22.9167 39.5284 22.25C39.0587 21.5833 38.8239 20.7424 38.8239 19.7273V2.36364ZM56.3977 24.3636C54.7159 24.3636 53.2652 23.9924 52.0455 23.25C50.8333 22.5 49.8977 21.4545 49.2386 20.1136C48.5871 18.7652 48.2614 17.197 48.2614 15.4091C48.2614 13.6212 48.5871 12.0455 49.2386 10.6818C49.8977 9.31061 50.8144 8.24242 51.9886 7.47727C53.1705 6.70455 54.5492 6.31818 56.125 6.31818C57.0341 6.31818 57.9318 6.4697 58.8182 6.77273C59.7045 7.07576 60.5114 7.56818 61.2386 8.25C61.9659 8.92424 62.5455 9.81818 62.9773 10.9318C63.4091 12.0455 63.625 13.4167 63.625 15.0455V16.1818H50.1705V13.8636H60.8977C60.8977 12.8788 60.7008 12 60.3068 11.2273C59.9205 10.4545 59.3674 9.8447 58.6477 9.39773C57.9356 8.95076 57.0947 8.72727 56.125 8.72727C55.0568 8.72727 54.1326 8.99242 53.3523 9.52273C52.5795 10.0455 51.9848 10.7273 51.5682 11.5682C51.1515 12.4091 50.9432 13.3106 50.9432 14.2727V15.8182C50.9432 17.1364 51.1705 18.2538 51.625 19.1705C52.0871 20.0795 52.7273 20.7727 53.5455 21.25C54.3636 21.7197 55.3144 21.9545 56.3977 21.9545C57.1023 21.9545 57.7386 21.8561 58.3068 21.6591C58.8826 21.4545 59.3788 21.1515 59.7955 20.75C60.2121 20.3409 60.5341 19.8333 60.7614 19.2273L63.3523 19.9545C63.0795 20.8333 62.6212 21.6061 61.9773 22.2727C61.3333 22.9318 60.5379 23.447 59.5909 23.8182C58.6439 24.1818 57.5795 24.3636 56.3977 24.3636ZM80.7955 6.54545C80.6591 5.39394 80.1061 4.5 79.1364 3.86364C78.1667 3.22727 76.9773 2.90909 75.5682 2.90909C74.5379 2.90909 73.6364 3.07576 72.8636 3.40909C72.0985 3.74242 71.5 4.20076 71.0682 4.78409C70.6439 5.36742 70.4318 6.0303 70.4318 6.77273C70.4318 7.39394 70.5795 7.92803 70.875 8.375C71.178 8.81439 71.5644 9.18182 72.0341 9.47727C72.5038 9.76515 72.9962 10.0038 73.5114 10.1932C74.0265 10.375 74.5 10.5227 74.9318 10.6364L77.2955 11.2727C77.9015 11.4318 78.5758 11.6515 79.3182 11.9318C80.0682 12.2121 80.7841 12.5947 81.4659 13.0795C82.1553 13.5568 82.7235 14.1705 83.1705 14.9205C83.6174 15.6705 83.8409 16.5909 83.8409 17.6818C83.8409 18.9394 83.5114 20.0758 82.8523 21.0909C82.2008 22.1061 81.2462 22.9129 79.9886 23.5114C78.7386 24.1098 77.2197 24.4091 75.4318 24.4091C73.7652 24.4091 72.322 24.1402 71.1023 23.6023C69.8902 23.0644 68.9356 22.3144 68.2386 21.3523C67.5492 20.3902 67.1591 19.2727 67.0682 18H69.9773C70.053 18.8788 70.3485 19.6061 70.8636 20.1818C71.3864 20.75 72.0455 21.1742 72.8409 21.4545C73.6439 21.7273 74.5076 21.8636 75.4318 21.8636C76.5076 21.8636 77.4735 21.6894 78.3295 21.3409C79.1856 20.9848 79.8636 20.4924 80.3636 19.8636C80.8636 19.2273 81.1136 18.4848 81.1136 17.6364C81.1136 16.8636 80.8977 16.2348 80.4659 15.75C80.0341 15.2652 79.4659 14.8712 78.7614 14.5682C78.0568 14.2652 77.2955 14 76.4773 13.7727L73.6136 12.9545C71.7955 12.4318 70.3561 11.6856 69.2955 10.7159C68.2348 9.74621 67.7045 8.47727 67.7045 6.90909C67.7045 5.60606 68.0568 4.4697 68.7614 3.5C69.4735 2.52273 70.428 1.76515 71.625 1.22727C72.8295 0.681817 74.1742 0.40909 75.6591 0.40909C77.1591 0.40909 78.4924 0.678029 79.6591 1.21591C80.8258 1.74621 81.75 2.47348 82.4318 3.39773C83.1212 4.32197 83.4848 5.37121 83.5227 6.54545H80.7955ZM88.1108 30.5455V6.54545H90.7017V9.31818H91.0199C91.2169 9.01515 91.4896 8.62879 91.8381 8.15909C92.1941 7.68182 92.7017 7.25758 93.3608 6.88636C94.0275 6.50758 94.929 6.31818 96.0653 6.31818C97.535 6.31818 98.8305 6.68561 99.9517 7.42045C101.073 8.1553 101.948 9.19697 102.577 10.5455C103.205 11.8939 103.52 13.4848 103.52 15.3182C103.52 17.1667 103.205 18.7689 102.577 20.125C101.948 21.4735 101.077 22.5189 99.9631 23.2614C98.8494 23.9962 97.5653 24.3636 96.1108 24.3636C94.9896 24.3636 94.0919 24.178 93.4176 23.8068C92.7434 23.428 92.2244 23 91.8608 22.5227C91.4972 22.0379 91.2169 21.6364 91.0199 21.3182H90.7926V30.5455H88.1108ZM90.7472 15.2727C90.7472 16.5909 90.9403 17.7538 91.3267 18.7614C91.7131 19.7614 92.2775 20.5455 93.0199 21.1136C93.7623 21.6742 94.6714 21.9545 95.7472 21.9545C96.8684 21.9545 97.804 21.6591 98.554 21.0682C99.3116 20.4697 99.8797 19.6667 100.259 18.6591C100.645 17.6439 100.838 16.5152 100.838 15.2727C100.838 14.0455 100.649 12.9394 100.27 11.9545C99.8987 10.9621 99.3343 10.178 98.5767 9.60227C97.8267 9.01894 96.8835 8.72727 95.7472 8.72727C94.6563 8.72727 93.7396 9.00379 92.9972 9.55682C92.2547 10.1023 91.6941 10.8674 91.3153 11.8523C90.9366 12.8295 90.7472 13.9697 90.7472 15.2727ZM114.702 24.3636C113.126 24.3636 111.743 23.9886 110.554 23.2386C109.372 22.4886 108.448 21.4394 107.781 20.0909C107.122 18.7424 106.793 17.1667 106.793 15.3636C106.793 13.5455 107.122 11.9583 107.781 10.6023C108.448 9.24621 109.372 8.19318 110.554 7.44318C111.743 6.69318 113.126 6.31818 114.702 6.31818C116.277 6.31818 117.656 6.69318 118.838 7.44318C120.027 8.19318 120.952 9.24621 121.611 10.6023C122.277 11.9583 122.611 13.5455 122.611 15.3636C122.611 17.1667 122.277 18.7424 121.611 20.0909C120.952 21.4394 120.027 22.4886 118.838 23.2386C117.656 23.9886 116.277 24.3636 114.702 24.3636ZM114.702 21.9545C115.899 21.9545 116.884 21.6477 117.656 21.0341C118.429 20.4205 119.001 19.6136 119.372 18.6136C119.743 17.6136 119.929 16.5303 119.929 15.3636C119.929 14.197 119.743 13.1098 119.372 12.1023C119.001 11.0947 118.429 10.2803 117.656 9.65909C116.884 9.03788 115.899 8.72727 114.702 8.72727C113.505 8.72727 112.52 9.03788 111.747 9.65909C110.974 10.2803 110.402 11.0947 110.031 12.1023C109.66 13.1098 109.474 14.197 109.474 15.3636C109.474 16.5303 109.66 17.6136 110.031 18.6136C110.402 19.6136 110.974 20.4205 111.747 21.0341C112.52 21.6477 113.505 21.9545 114.702 21.9545ZM134.295 6.54545V8.81818H125.25V6.54545H134.295ZM127.886 2.36364H130.568V19C130.568 19.7576 130.678 20.3258 130.898 20.7045C131.125 21.0758 131.413 21.3258 131.761 21.4545C132.117 21.5758 132.492 21.6364 132.886 21.6364C133.182 21.6364 133.424 21.6212 133.614 21.5909C133.803 21.553 133.955 21.5227 134.068 21.5L134.614 23.9091C134.432 23.9773 134.178 24.0455 133.852 24.1136C133.527 24.1894 133.114 24.2273 132.614 24.2273C131.856 24.2273 131.114 24.0644 130.386 23.7386C129.667 23.4129 129.068 22.9167 128.591 22.25C128.121 21.5833 127.886 20.7424 127.886 19.7273V2.36364Z" fill="url(#paint0_linear_1_3)"/>
<defs>
<linearGradient id="paint0_linear_1_3" x1="136" y1="32" x2="-2" y2="32" gradientUnits="userSpaceOnUse">
<stop stop-color="#00D1FF"/>
<stop offset="1" stop-color="#8608E9"/>
</linearGradient>
</defs>
</svg>
