<svg width="24" height="24" viewBox="0 0 24 24" fill="none" xmlns="http://www.w3.org/2000/svg">
<path d="M13.1429 4C14.6606 4 16.08 4.42286 17.2892 5.15657C15.5473 5.26442 13.9122 6.03235 12.7168 7.30388C11.5215 8.57541 10.8559 10.2549 10.8558 12C10.8557 13.7452 11.5209 15.4248 12.716 16.6965C13.9112 17.9682 15.5462 18.7364 17.288 18.8446C16.2323 19.4833 15.0432 19.8692 13.8136 19.9721C12.584 20.075 11.3473 19.8921 10.2002 19.4377C9.05302 18.9832 8.02653 18.2696 7.20097 17.3526C6.37541 16.4356 5.77316 15.34 5.44131 14.1516C5.10946 12.9632 5.057 11.7141 5.28804 10.502C5.51909 9.28996 6.02736 8.14777 6.77313 7.16476C7.51889 6.18175 8.48194 5.38457 9.58695 4.83555C10.692 4.28654 11.909 4.00057 13.1429 4Z" stroke="white" stroke-width="1.14286" stroke-linecap="round" stroke-linejoin="round"/>
</svg>
