<svg width="32" height="32" viewBox="0 0 32 32" fill="none" xmlns="http://www.w3.org/2000/svg">
<path d="M28.3334 16C28.3334 19.271 27.034 22.408 24.721 24.721C22.4081 27.0339 19.271 28.3333 16 28.3333V30.3333C23.916 30.3333 30.3334 23.916 30.3334 16H28.3334ZM16 28.3333C12.729 28.3333 9.59199 27.0339 7.27904 24.721C4.96609 22.408 3.66669 19.271 3.66669 16H1.66669C1.66669 23.916 8.08402 30.3333 16 30.3333V28.3333ZM3.66669 16C3.66669 12.729 4.96609 9.59197 7.27904 7.27902C9.59199 4.96607 12.729 3.66667 16 3.66667V1.66667C8.08402 1.66667 1.66669 8.08401 1.66669 16H3.66669ZM20.6667 19C18.6334 19 16.6833 18.1923 15.2455 16.7545C13.8078 15.3167 13 13.3667 13 11.3333H11C11 13.8971 12.0185 16.3559 13.8313 18.1687C15.6442 19.9816 18.1029 21 20.6667 21V19ZM27.2334 15.292C26.5515 16.4239 25.5885 17.3602 24.4378 18.0099C23.2872 18.6596 21.9881 19.0007 20.6667 19V21C22.3326 21.0009 23.9705 20.571 25.4213 19.7522C26.872 18.9334 28.0865 17.7533 28.9467 16.3267L27.2334 15.292ZM13 11.3333C12.9994 10.012 13.3406 8.71289 13.9903 7.56228C14.64 6.41167 15.5762 5.44863 16.708 4.76667L15.6734 3.05467C14.2468 3.91466 13.0668 5.12887 12.248 6.57943C11.4291 8.02999 10.9992 9.66762 11 11.3333H13ZM16 3.66667C15.8648 3.66348 15.7363 3.60692 15.6427 3.50934C15.5854 3.45365 15.5472 3.38134 15.5334 3.30267C15.528 3.26134 15.5307 3.14134 15.6734 3.05467L16.708 4.76667C17.3787 4.36134 17.5947 3.61867 17.516 3.03467C17.4334 2.42801 16.956 1.66667 16 1.66667V3.66667ZM28.9467 16.3267C28.8587 16.4693 28.7387 16.472 28.6974 16.4667C28.6187 16.4529 28.5464 16.4146 28.4907 16.3573C28.3931 16.2637 28.3365 16.1352 28.3334 16H30.3334C30.3334 15.044 29.572 14.5667 28.9654 14.484C28.3814 14.4053 27.6387 14.6213 27.2334 15.292L28.9467 16.3267Z" fill="white"/>
</svg>
